<svg width="18" height="18" viewBox="0 0 18 18" fill="none" xmlns="http://www.w3.org/2000/svg">
<path d="M15.75 3.51562H11.25C10.8015 3.51596 10.3604 3.62916 9.96716 3.84482C9.57395 4.06047 9.24134 4.37162 9 4.74961C8.75866 4.37162 8.42605 4.06047 8.03284 3.84482C7.63963 3.62916 7.19846 3.51596 6.75 3.51562H2.25C1.98893 3.51562 1.73855 3.61934 1.55394 3.80394C1.36934 3.98855 1.26563 4.23893 1.26562 4.5V13.5C1.26562 13.7611 1.36934 14.0115 1.55394 14.1961C1.73855 14.3807 1.98893 14.4844 2.25 14.4844H6.75C7.23485 14.4844 7.69984 14.677 8.04268 15.0198C8.38552 15.3627 8.57812 15.8277 8.57812 16.3125C8.57812 16.4244 8.62257 16.5317 8.70169 16.6108C8.78081 16.6899 8.88811 16.7344 9 16.7344C9.11189 16.7344 9.21919 16.6899 9.29831 16.6108C9.37743 16.5317 9.42188 16.4244 9.42188 16.3125C9.42188 15.8277 9.61448 15.3627 9.95732 15.0198C10.3002 14.677 10.7652 14.4844 11.25 14.4844H15.75C16.0111 14.4844 16.2615 14.3807 16.4461 14.1961C16.6307 14.0115 16.7344 13.7611 16.7344 13.5V4.5C16.7344 4.23893 16.6307 3.98855 16.4461 3.80394C16.2615 3.61934 16.0111 3.51562 15.75 3.51562ZM6.75 13.6406H2.25C2.2127 13.6406 2.17694 13.6258 2.15056 13.5994C2.12419 13.5731 2.10938 13.5373 2.10938 13.5V4.5C2.10938 4.4627 2.12419 4.42694 2.15056 4.40056C2.17694 4.37419 2.2127 4.35938 2.25 4.35938H6.75C7.23485 4.35938 7.69984 4.55198 8.04268 4.89482C8.38552 5.23766 8.57812 5.70265 8.57812 6.1875V14.3655C8.08362 13.8994 7.42957 13.6401 6.75 13.6406ZM15.8906 13.5C15.8906 13.5373 15.8758 13.5731 15.8494 13.5994C15.8231 13.6258 15.7873 13.6406 15.75 13.6406H11.25C10.5704 13.6403 9.91631 13.8999 9.42188 14.3663V6.1875C9.42188 5.70265 9.61448 5.23766 9.95732 4.89482C10.3002 4.55198 10.7652 4.35938 11.25 4.35938H15.75C15.7873 4.35938 15.8231 4.37419 15.8494 4.40056C15.8758 4.42694 15.8906 4.4627 15.8906 4.5V13.5ZM14.4844 6.75C14.4844 6.86189 14.4399 6.96919 14.3608 7.04831C14.2817 7.12743 14.1744 7.17188 14.0625 7.17188H11.25C11.1381 7.17188 11.0308 7.12743 10.9517 7.04831C10.8726 6.96919 10.8281 6.86189 10.8281 6.75C10.8281 6.63811 10.8726 6.53081 10.9517 6.45169C11.0308 6.37257 11.1381 6.32812 11.25 6.32812H14.0625C14.1744 6.32812 14.2817 6.37257 14.3608 6.45169C14.4399 6.53081 14.4844 6.63811 14.4844 6.75ZM14.4844 9C14.4844 9.11189 14.4399 9.21919 14.3608 9.29831C14.2817 9.37743 14.1744 9.42188 14.0625 9.42188H11.25C11.1381 9.42188 11.0308 9.37743 10.9517 9.29831C10.8726 9.21919 10.8281 9.11189 10.8281 9C10.8281 8.88811 10.8726 8.78081 10.9517 8.70169C11.0308 8.62257 11.1381 8.57812 11.25 8.57812H14.0625C14.1744 8.57812 14.2817 8.62257 14.3608 8.70169C14.4399 8.78081 14.4844 8.88811 14.4844 9ZM14.4844 11.25C14.4844 11.3619 14.4399 11.4692 14.3608 11.5483C14.2817 11.6274 14.1744 11.6719 14.0625 11.6719H11.25C11.1381 11.6719 11.0308 11.6274 10.9517 11.5483C10.8726 11.4692 10.8281 11.3619 10.8281 11.25C10.8281 11.1381 10.8726 11.0308 10.9517 10.9517C11.0308 10.8726 11.1381 10.8281 11.25 10.8281H14.0625C14.1744 10.8281 14.2817 10.8726 14.3608 10.9517C14.4399 11.0308 14.4844 11.1381 14.4844 11.25Z" fill="#6F6C99"/>
</svg>
