<svg width="16" height="16" viewBox="0 0 16 16" fill="none" xmlns="http://www.w3.org/2000/svg">
<path d="M14 3.125H10C9.60137 3.12529 9.20922 3.22592 8.8597 3.41761C8.51018 3.6093 8.21453 3.88589 8 4.22188C7.78547 3.88589 7.48982 3.6093 7.1403 3.41761C6.79078 3.22592 6.39863 3.12529 6 3.125H2C1.76794 3.125 1.54538 3.21719 1.38128 3.38128C1.21719 3.54538 1.125 3.76794 1.125 4V12C1.125 12.2321 1.21719 12.4546 1.38128 12.6187C1.54538 12.7828 1.76794 12.875 2 12.875H6C6.43098 12.875 6.8443 13.0462 7.14905 13.351C7.45379 13.6557 7.625 14.069 7.625 14.5C7.625 14.5995 7.66451 14.6948 7.73484 14.7652C7.80516 14.8355 7.90054 14.875 8 14.875C8.09946 14.875 8.19484 14.8355 8.26517 14.7652C8.33549 14.6948 8.375 14.5995 8.375 14.5C8.375 14.069 8.5462 13.6557 8.85095 13.351C9.1557 13.0462 9.56902 12.875 10 12.875H14C14.2321 12.875 14.4546 12.7828 14.6187 12.6187C14.7828 12.4546 14.875 12.2321 14.875 12V4C14.875 3.76794 14.7828 3.54538 14.6187 3.38128C14.4546 3.21719 14.2321 3.125 14 3.125ZM6 12.125H2C1.96685 12.125 1.93505 12.1118 1.91161 12.0884C1.88817 12.0649 1.875 12.0332 1.875 12V4C1.875 3.96685 1.88817 3.93505 1.91161 3.91161C1.93505 3.88817 1.96685 3.875 2 3.875H6C6.43098 3.875 6.8443 4.04621 7.14905 4.35095C7.45379 4.6557 7.625 5.06902 7.625 5.5V12.7694C7.18544 12.355 6.60406 12.1245 6 12.125ZM14.125 12C14.125 12.0332 14.1118 12.0649 14.0884 12.0884C14.0649 12.1118 14.0332 12.125 14 12.125H10C9.39587 12.1247 8.8145 12.3555 8.375 12.77V5.5C8.375 5.06902 8.5462 4.6557 8.85095 4.35095C9.1557 4.04621 9.56902 3.875 10 3.875H14C14.0332 3.875 14.0649 3.88817 14.0884 3.91161C14.1118 3.93505 14.125 3.96685 14.125 4V12ZM12.875 6C12.875 6.09946 12.8355 6.19484 12.7652 6.26516C12.6948 6.33549 12.5995 6.375 12.5 6.375H10C9.90054 6.375 9.80516 6.33549 9.73483 6.26516C9.66451 6.19484 9.625 6.09946 9.625 6C9.625 5.90054 9.66451 5.80516 9.73483 5.73484C9.80516 5.66451 9.90054 5.625 10 5.625H12.5C12.5995 5.625 12.6948 5.66451 12.7652 5.73484C12.8355 5.80516 12.875 5.90054 12.875 6ZM12.875 8C12.875 8.09946 12.8355 8.19484 12.7652 8.26517C12.6948 8.33549 12.5995 8.375 12.5 8.375H10C9.90054 8.375 9.80516 8.33549 9.73483 8.26517C9.66451 8.19484 9.625 8.09946 9.625 8C9.625 7.90054 9.66451 7.80516 9.73483 7.73484C9.80516 7.66451 9.90054 7.625 10 7.625H12.5C12.5995 7.625 12.6948 7.66451 12.7652 7.73484C12.8355 7.80516 12.875 7.90054 12.875 8ZM12.875 10C12.875 10.0995 12.8355 10.1948 12.7652 10.2652C12.6948 10.3355 12.5995 10.375 12.5 10.375H10C9.90054 10.375 9.80516 10.3355 9.73483 10.2652C9.66451 10.1948 9.625 10.0995 9.625 10C9.625 9.90054 9.66451 9.80516 9.73483 9.73483C9.80516 9.66451 9.90054 9.625 10 9.625H12.5C12.5995 9.625 12.6948 9.66451 12.7652 9.73483C12.8355 9.80516 12.875 9.90054 12.875 10Z" fill="#1864FB"/>
</svg>
