<svg width="20" height="20" viewBox="0 0 20 20" fill="none" xmlns="http://www.w3.org/2000/svg">
<path d="M8.125 2.65611H4.375C4.08492 2.65611 3.80672 2.77134 3.6016 2.97646C3.39648 3.18158 3.28125 3.45978 3.28125 3.74986V16.2499C3.28125 16.5399 3.39648 16.8181 3.6016 17.0233C3.80672 17.2284 4.08492 17.3436 4.375 17.3436H8.125C8.26863 17.3436 8.41086 17.3153 8.54356 17.2604C8.67626 17.2054 8.79683 17.1248 8.8984 17.0233C8.99996 16.9217 9.08053 16.8011 9.13549 16.6684C9.19046 16.5357 9.21875 16.3935 9.21875 16.2499V3.74986C9.21875 3.60623 9.19046 3.464 9.13549 3.3313C9.08053 3.1986 8.99996 3.07803 8.8984 2.97646C8.79683 2.8749 8.67626 2.79433 8.54356 2.73937C8.41086 2.6844 8.26863 2.65611 8.125 2.65611ZM4.21875 6.09361H8.28125V13.9061H4.21875V6.09361ZM4.375 3.59361H8.125C8.16644 3.59361 8.20618 3.61007 8.23549 3.63937C8.26479 3.66868 8.28125 3.70842 8.28125 3.74986V5.15611H4.21875V3.74986C4.21875 3.70842 4.23521 3.66868 4.26451 3.63937C4.29382 3.61007 4.33356 3.59361 4.375 3.59361ZM8.125 16.4061H4.375C4.33356 16.4061 4.29382 16.3896 4.26451 16.3603C4.23521 16.331 4.21875 16.2913 4.21875 16.2499V14.8436H8.28125V16.2499C8.28125 16.2913 8.26479 16.331 8.23549 16.3603C8.20618 16.3896 8.16644 16.4061 8.125 16.4061ZM17.9453 15.2342L15.3523 2.90299C15.3231 2.76182 15.2662 2.62783 15.185 2.50872C15.1037 2.38962 14.9998 2.28775 14.879 2.20897C14.7583 2.1302 14.6231 2.07607 14.4814 2.0497C14.3397 2.02333 14.1941 2.02524 14.0531 2.05533L10.3961 2.84127C10.1131 2.90348 9.86599 3.07478 9.70847 3.31801C9.55095 3.56124 9.49569 3.85677 9.55469 4.14049L12.1477 16.4694C12.1771 16.6111 12.2345 16.7454 12.3163 16.8648C12.3981 16.9842 12.5027 17.0861 12.6242 17.1647C12.8 17.2797 13.0055 17.3411 13.2156 17.3413C13.2944 17.3417 13.373 17.3333 13.45 17.3163L17.107 16.5311C17.389 16.4682 17.6349 16.2969 17.7917 16.0543C17.9485 15.8117 18.0037 15.5172 17.9453 15.2342ZM11.4758 8.72486L15.4391 7.8733L16.5422 13.1202L12.5781 13.9694L11.4758 8.72486ZM10.9578 6.25924L14.9219 5.40533L15.2461 6.95299L11.2828 7.80455L10.9578 6.25924ZM10.5938 3.75924L14.25 2.97408C14.2609 2.97302 14.2719 2.97302 14.2828 2.97408C14.312 2.97411 14.3406 2.98281 14.3648 2.99908C14.3828 3.01051 14.3982 3.02548 14.4102 3.04308C14.4221 3.06067 14.4304 3.08053 14.4344 3.10142L14.7273 4.49361L10.7648 5.33892L10.4727 3.94986C10.4635 3.90834 10.4711 3.86489 10.4938 3.82893C10.5164 3.79296 10.5524 3.76736 10.5938 3.75767V3.75924ZM16.907 15.6186L13.25 16.4061C13.2304 16.4105 13.2102 16.4108 13.1904 16.4072C13.1707 16.4036 13.1519 16.396 13.1352 16.385C13.1172 16.3736 13.1018 16.3586 13.0898 16.341C13.0779 16.3234 13.0696 16.3036 13.0656 16.2827L12.7727 14.8905L16.7352 14.0389L17.0312 15.4241C17.0358 15.4449 17.0363 15.4664 17.0325 15.4874C17.0287 15.5084 17.0208 15.5285 17.0093 15.5464C16.9978 15.5644 16.9828 15.5798 16.9652 15.5919C16.9477 15.6041 16.9279 15.6126 16.907 15.617V15.6186Z" fill="#1864FB"/>
</svg>
