<svg width="24" height="26" viewBox="0 0 24 26" fill="none" xmlns="http://www.w3.org/2000/svg">
<path d="M21.75 2H18.5V0.75C18.5 0.551088 18.421 0.360322 18.2803 0.21967C18.1397 0.0790175 17.9489 0 17.75 0C17.5511 0 17.3603 0.0790175 17.2197 0.21967C17.079 0.360322 17 0.551088 17 0.75V2H6.5V0.75C6.5 0.551088 6.42098 0.360322 6.28033 0.21967C6.13968 0.0790175 5.94891 0 5.75 0C5.55109 0 5.36032 0.0790175 5.21967 0.21967C5.07902 0.360322 5 0.551088 5 0.75V2H1.75C1.28587 2 0.840752 2.18437 0.512563 2.51256C0.184375 2.84075 0 3.28587 0 3.75V23.75C0 24.2141 0.184375 24.6592 0.512563 24.9874C0.840752 25.3156 1.28587 25.5 1.75 25.5H21.75C22.2141 25.5 22.6592 25.3156 22.9874 24.9874C23.3156 24.6592 23.5 24.2141 23.5 23.75V3.75C23.5 3.28587 23.3156 2.84075 22.9874 2.51256C22.6592 2.18437 22.2141 2 21.75 2ZM1.75 3.5H5V4.75C5 4.94891 5.07902 5.13968 5.21967 5.28033C5.36032 5.42098 5.55109 5.5 5.75 5.5C5.94891 5.5 6.13968 5.42098 6.28033 5.28033C6.42098 5.13968 6.5 4.94891 6.5 4.75V3.5H17V4.75C17 4.94891 17.079 5.13968 17.2197 5.28033C17.3603 5.42098 17.5511 5.5 17.75 5.5C17.9489 5.5 18.1397 5.42098 18.2803 5.28033C18.421 5.13968 18.5 4.94891 18.5 4.75V3.5H21.75C21.8163 3.5 21.8799 3.52634 21.9268 3.57322C21.9737 3.62011 22 3.6837 22 3.75V8H1.5V3.75C1.5 3.6837 1.52634 3.62011 1.57322 3.57322C1.62011 3.52634 1.6837 3.5 1.75 3.5ZM21.75 24H1.75C1.6837 24 1.62011 23.9737 1.57322 23.9268C1.52634 23.8799 1.5 23.8163 1.5 23.75V9.5H22V23.75C22 23.8163 21.9737 23.8799 21.9268 23.9268C21.8799 23.9737 21.8163 24 21.75 24ZM13 14.25C13 14.4972 12.9267 14.7389 12.7893 14.9445C12.652 15.15 12.4568 15.3102 12.2284 15.4049C11.9999 15.4995 11.7486 15.5242 11.5061 15.476C11.2637 15.4277 11.0409 15.3087 10.8661 15.1339C10.6913 14.9591 10.5722 14.7363 10.524 14.4939C10.4758 14.2514 10.5005 14.0001 10.5952 13.7716C10.6898 13.5432 10.85 13.348 11.0555 13.2107C11.2611 13.0733 11.5028 13 11.75 13C12.0815 13 12.3995 13.1317 12.6339 13.3661C12.8683 13.6005 13 13.9185 13 14.25ZM18.5 14.25C18.5 14.4972 18.4267 14.7389 18.2893 14.9445C18.152 15.15 17.9568 15.3102 17.7284 15.4049C17.4999 15.4995 17.2486 15.5242 17.0061 15.476C16.7637 15.4277 16.5409 15.3087 16.3661 15.1339C16.1913 14.9591 16.0723 14.7363 16.024 14.4939C15.9758 14.2514 16.0005 14.0001 16.0951 13.7716C16.1898 13.5432 16.35 13.348 16.5555 13.2107C16.7611 13.0733 17.0028 13 17.25 13C17.5815 13 17.8995 13.1317 18.1339 13.3661C18.3683 13.6005 18.5 13.9185 18.5 14.25ZM7.5 19.25C7.5 19.4972 7.42669 19.7389 7.28934 19.9445C7.15199 20.15 6.95676 20.3102 6.72835 20.4049C6.49995 20.4995 6.24861 20.5242 6.00614 20.476C5.76366 20.4277 5.54093 20.3087 5.36612 20.1339C5.1913 19.9591 5.07225 19.7363 5.02402 19.4939C4.97579 19.2514 5.00054 19.0001 5.09515 18.7716C5.18976 18.5432 5.34998 18.348 5.55554 18.2107C5.7611 18.0733 6.00277 18 6.25 18C6.58152 18 6.89946 18.1317 7.13388 18.3661C7.3683 18.6005 7.5 18.9185 7.5 19.25ZM13 19.25C13 19.4972 12.9267 19.7389 12.7893 19.9445C12.652 20.15 12.4568 20.3102 12.2284 20.4049C11.9999 20.4995 11.7486 20.5242 11.5061 20.476C11.2637 20.4277 11.0409 20.3087 10.8661 20.1339C10.6913 19.9591 10.5722 19.7363 10.524 19.4939C10.4758 19.2514 10.5005 19.0001 10.5952 18.7716C10.6898 18.5432 10.85 18.348 11.0555 18.2107C11.2611 18.0733 11.5028 18 11.75 18C12.0815 18 12.3995 18.1317 12.6339 18.3661C12.8683 18.6005 13 18.9185 13 19.25ZM18.5 19.25C18.5 19.4972 18.4267 19.7389 18.2893 19.9445C18.152 20.15 17.9568 20.3102 17.7284 20.4049C17.4999 20.4995 17.2486 20.5242 17.0061 20.476C16.7637 20.4277 16.5409 20.3087 16.3661 20.1339C16.1913 19.9591 16.0723 19.7363 16.024 19.4939C15.9758 19.2514 16.0005 19.0001 16.0951 18.7716C16.1898 18.5432 16.35 18.348 16.5555 18.2107C16.7611 18.0733 17.0028 18 17.25 18C17.5815 18 17.8995 18.1317 18.1339 18.3661C18.3683 18.6005 18.5 18.9185 18.5 19.25Z" fill="url(#paint0_linear_716_26570)"/>
<defs>
<linearGradient id="paint0_linear_716_26570" x1="13.001" y1="32.8962" x2="27.569" y2="21.3243" gradientUnits="userSpaceOnUse">
<stop stop-color="#339CFE"/>
<stop offset="1" stop-color="#62CBFF"/>
</linearGradient>
</defs>
</svg>
