<svg width="14" height="14" viewBox="0 0 14 14" fill="none" xmlns="http://www.w3.org/2000/svg">
<path d="M11.375 1.85938H9.95312V1.3125C9.95312 1.22548 9.91856 1.14202 9.85702 1.08048C9.79548 1.01895 9.71202 0.984375 9.625 0.984375C9.53798 0.984375 9.45452 1.01895 9.39298 1.08048C9.33144 1.14202 9.29688 1.22548 9.29688 1.3125V1.85938H4.70312V1.3125C4.70312 1.22548 4.66855 1.14202 4.60702 1.08048C4.54548 1.01895 4.46202 0.984375 4.375 0.984375C4.28798 0.984375 4.20452 1.01895 4.14298 1.08048C4.08145 1.14202 4.04688 1.22548 4.04688 1.3125V1.85938H2.625C2.42194 1.85938 2.2272 1.94004 2.08362 2.08362C1.94004 2.2272 1.85938 2.42194 1.85938 2.625V11.375C1.85938 11.5781 1.94004 11.7728 2.08362 11.9164C2.2272 12.06 2.42194 12.1406 2.625 12.1406H11.375C11.5781 12.1406 11.7728 12.06 11.9164 11.9164C12.06 11.7728 12.1406 11.5781 12.1406 11.375V2.625C12.1406 2.42194 12.06 2.2272 11.9164 2.08362C11.7728 1.94004 11.5781 1.85938 11.375 1.85938ZM2.625 2.51562H4.04688V3.0625C4.04688 3.14952 4.08145 3.23298 4.14298 3.29452C4.20452 3.35605 4.28798 3.39062 4.375 3.39062C4.46202 3.39062 4.54548 3.35605 4.60702 3.29452C4.66855 3.23298 4.70312 3.14952 4.70312 3.0625V2.51562H9.29688V3.0625C9.29688 3.14952 9.33144 3.23298 9.39298 3.29452C9.45452 3.35605 9.53798 3.39062 9.625 3.39062C9.71202 3.39062 9.79548 3.35605 9.85702 3.29452C9.91856 3.23298 9.95312 3.14952 9.95312 3.0625V2.51562H11.375C11.404 2.51562 11.4318 2.52715 11.4523 2.54766C11.4729 2.56817 11.4844 2.59599 11.4844 2.625V4.48438H2.51562V2.625C2.51562 2.59599 2.52715 2.56817 2.54766 2.54766C2.56817 2.52715 2.59599 2.51562 2.625 2.51562ZM11.375 11.4844H2.625C2.59599 11.4844 2.56817 11.4729 2.54766 11.4523C2.52715 11.4318 2.51562 11.404 2.51562 11.375V5.14062H11.4844V11.375C11.4844 11.404 11.4729 11.4318 11.4523 11.4523C11.4318 11.4729 11.404 11.4844 11.375 11.4844Z" fill="#6F6C99"/>
</svg>
