<svg width="16" height="16" viewBox="0 0 16 16" fill="none" xmlns="http://www.w3.org/2000/svg">
<path d="M15.375 8C15.3755 7.44417 15.2387 6.89682 14.9767 6.40658C14.7148 5.91634 14.3358 5.49839 13.8735 5.18984C13.4112 4.88129 12.8798 4.69171 12.3266 4.63792C11.7734 4.58414 11.2154 4.66782 10.7023 4.88154C10.1892 5.09526 9.73683 5.43239 9.38537 5.863C9.03391 6.2936 8.79423 6.80435 8.68764 7.34986C8.58105 7.89538 8.61084 8.45877 8.77436 8.99001C8.93789 9.52124 9.23009 10.0039 9.625 10.395V14C9.62498 14.0639 9.6413 14.1268 9.6724 14.1826C9.7035 14.2384 9.74835 14.2854 9.80271 14.319C9.85706 14.3526 9.9191 14.3718 9.98294 14.3747C10.0468 14.3776 10.1103 14.3642 10.1675 14.3356L12 13.4194L13.8325 14.3356C13.8845 14.3616 13.9419 14.375 14 14.375C14.0696 14.3751 14.1378 14.3556 14.1969 14.3188C14.2513 14.2852 14.2962 14.2383 14.3274 14.1825C14.3585 14.1267 14.3749 14.0639 14.375 14V10.395C14.692 10.0819 14.9436 9.70895 15.1152 9.29781C15.2869 8.88667 15.3752 8.44554 15.375 8ZM9.375 8C9.375 7.48082 9.52895 6.97331 9.81739 6.54163C10.1058 6.10995 10.5158 5.7735 10.9955 5.57482C11.4751 5.37614 12.0029 5.32415 12.5121 5.42544C13.0213 5.52672 13.489 5.77673 13.8562 6.14384C14.2233 6.51096 14.4733 6.97869 14.5746 7.48789C14.6758 7.99709 14.6239 8.52489 14.4252 9.00454C14.2265 9.4842 13.8901 9.89417 13.4584 10.1826C13.0267 10.471 12.5192 10.625 12 10.625C11.3038 10.625 10.6361 10.3484 10.1438 9.85616C9.65156 9.36387 9.375 8.69619 9.375 8ZM13.625 13.3931L12.1675 12.6644C12.1155 12.6384 12.0581 12.6249 12 12.6249C11.9419 12.6249 11.8845 12.6384 11.8325 12.6644L10.375 13.3931V10.9556C10.8727 11.2299 11.4317 11.3737 12 11.3737C12.5683 11.3737 13.1273 11.2299 13.625 10.9556V13.3931ZM8.375 12C8.375 12.0995 8.33549 12.1948 8.26517 12.2652C8.19484 12.3355 8.09946 12.375 8 12.375H2.5C2.26794 12.375 2.04538 12.2828 1.88128 12.1187C1.71719 11.9546 1.625 11.7321 1.625 11.5V3.5C1.625 3.26794 1.71719 3.04538 1.88128 2.88128C2.04538 2.71719 2.26794 2.625 2.5 2.625H13.5C13.7321 2.625 13.9546 2.71719 14.1187 2.88128C14.2828 3.04538 14.375 3.26794 14.375 3.5C14.375 3.59946 14.3355 3.69484 14.2652 3.76517C14.1948 3.83549 14.0995 3.875 14 3.875C13.9005 3.875 13.8052 3.83549 13.7348 3.76517C13.6645 3.69484 13.625 3.59946 13.625 3.5C13.625 3.46685 13.6118 3.43505 13.5884 3.41161C13.5649 3.38817 13.5332 3.375 13.5 3.375H2.5C2.46685 3.375 2.43505 3.38817 2.41161 3.41161C2.38817 3.43505 2.375 3.46685 2.375 3.5V11.5C2.375 11.5332 2.38817 11.5649 2.41161 11.5884C2.43505 11.6118 2.46685 11.625 2.5 11.625H8C8.09946 11.625 8.19484 11.6645 8.26517 11.7348C8.33549 11.8052 8.375 11.9005 8.375 12ZM7.375 8.5C7.375 8.59946 7.33549 8.69484 7.26516 8.76517C7.19484 8.83549 7.09946 8.875 7 8.875H4.5C4.40054 8.875 4.30516 8.83549 4.23484 8.76517C4.16451 8.69484 4.125 8.59946 4.125 8.5C4.125 8.40054 4.16451 8.30516 4.23484 8.23483C4.30516 8.16451 4.40054 8.125 4.5 8.125H7C7.09946 8.125 7.19484 8.16451 7.26516 8.23483C7.33549 8.30516 7.375 8.40054 7.375 8.5ZM7.375 6.5C7.375 6.59946 7.33549 6.69484 7.26516 6.76516C7.19484 6.83549 7.09946 6.875 7 6.875H4.5C4.40054 6.875 4.30516 6.83549 4.23484 6.76516C4.16451 6.69484 4.125 6.59946 4.125 6.5C4.125 6.40054 4.16451 6.30516 4.23484 6.23484C4.30516 6.16451 4.40054 6.125 4.5 6.125H7C7.09946 6.125 7.19484 6.16451 7.26516 6.23484C7.33549 6.30516 7.375 6.40054 7.375 6.5Z" fill="#1864FB"/>
</svg>
