<svg width="6" height="11" viewBox="0 0 6 11" fill="none" xmlns="http://www.w3.org/2000/svg">
<path d="M0.109588 5.63065L5.10959 10.6306C5.18068 10.6969 5.2747 10.7329 5.37185 10.7312C5.469 10.7295 5.56169 10.6902 5.6304 10.6215C5.69911 10.5528 5.73846 10.4601 5.74018 10.3629C5.74189 10.2658 5.70583 10.1717 5.63959 10.1006L0.905213 5.36565L5.63959 0.630646C5.70583 0.559559 5.74189 0.465535 5.74018 0.368385C5.73846 0.271234 5.69911 0.178541 5.6304 0.109835C5.56169 0.0411284 5.469 0.00177253 5.37185 5.84237e-05C5.2747 -0.00165568 5.18068 0.0344058 5.10959 0.100646L0.109588 5.10065C0.0393624 5.17096 -8.2016e-05 5.26627 -8.2016e-05 5.36565C-8.2016e-05 5.46502 0.0393624 5.56033 0.109588 5.63065Z" fill="#6F7982"/>
</svg>
