<svg width="6" height="11" viewBox="0 0 6 11" fill="none" xmlns="http://www.w3.org/2000/svg">
<path d="M5.63065 5.63065L0.630646 10.6306C0.559559 10.6969 0.465536 10.7329 0.368385 10.7312C0.271235 10.7295 0.178542 10.6902 0.109835 10.6215C0.0411289 10.5528 0.00177253 10.4601 5.84229e-05 10.3629C-0.00165569 10.2658 0.0344063 10.1717 0.100646 10.1006L4.83502 5.36565L0.100646 0.630646C0.0344063 0.559559 -0.00165569 0.465535 5.84229e-05 0.368385C0.00177253 0.271234 0.0411289 0.178541 0.109835 0.109835C0.178542 0.0411284 0.271235 0.00177253 0.368385 5.84237e-05C0.465536 -0.00165568 0.559559 0.0344058 0.630646 0.100646L5.63065 5.10065C5.70087 5.17096 5.74032 5.26627 5.74032 5.36565C5.74032 5.46502 5.70087 5.56033 5.63065 5.63065Z" fill="#6F7982"/>
</svg>
