<svg width="30" height="22" viewBox="0 0 30 22" fill="none" xmlns="http://www.w3.org/2000/svg">
<path d="M13.0387 7.4875C12.9758 7.29886 12.9903 7.09295 13.0792 6.91504C13.168 6.73712 13.3239 6.60177 13.5125 6.53875L15.0125 6.03875C15.1252 6.00111 15.2453 5.99081 15.3628 6.00869C15.4803 6.02656 15.5919 6.07211 15.6883 6.14157C15.7848 6.21104 15.8633 6.30243 15.9175 6.40821C15.9717 6.514 16 6.63114 16 6.75V11.75C16 11.9489 15.921 12.1397 15.7803 12.2803C15.6397 12.421 15.4489 12.5 15.25 12.5C15.0511 12.5 14.8603 12.421 14.7197 12.2803C14.579 12.1397 14.5 11.9489 14.5 11.75V7.79L13.9875 7.96125C13.7989 8.0242 13.5929 8.00965 13.415 7.92081C13.2371 7.83197 13.1018 7.67611 13.0387 7.4875ZM29.5 20.75C29.5 20.9489 29.421 21.1397 29.2803 21.2803C29.1397 21.421 28.9489 21.5 28.75 21.5H0.75C0.551088 21.5 0.360322 21.421 0.21967 21.2803C0.0790177 21.1397 0 20.9489 0 20.75C0 20.5511 0.0790177 20.3603 0.21967 20.2197C0.360322 20.079 0.551088 20 0.75 20H2V7.75C2 7.28587 2.18437 6.84075 2.51256 6.51256C2.84075 6.18437 3.28587 6 3.75 6H9V1.75C9 1.28587 9.18437 0.840752 9.51256 0.512563C9.84075 0.184375 10.2859 0 10.75 0H18.75C19.2141 0 19.6592 0.184375 19.9874 0.512563C20.3156 0.840752 20.5 1.28587 20.5 1.75V11H25.75C26.2141 11 26.6592 11.1844 26.9874 11.5126C27.3156 11.8408 27.5 12.2859 27.5 12.75V20H28.75C28.9489 20 29.1397 20.079 29.2803 20.2197C29.421 20.3603 29.5 20.5511 29.5 20.75ZM20.5 12.5V20H26V12.75C26 12.6837 25.9737 12.6201 25.9268 12.5732C25.8799 12.5263 25.8163 12.5 25.75 12.5H20.5ZM10.5 20H19V1.75C19 1.6837 18.9737 1.62011 18.9268 1.57322C18.8799 1.52634 18.8163 1.5 18.75 1.5H10.75C10.6837 1.5 10.6201 1.52634 10.5732 1.57322C10.5263 1.62011 10.5 1.6837 10.5 1.75V20ZM3.5 20H9V7.5H3.75C3.6837 7.5 3.62011 7.52634 3.57322 7.57322C3.52634 7.62011 3.5 7.6837 3.5 7.75V20Z" fill="url(#paint0_linear_716_26561)"/>
<defs>
<linearGradient id="paint0_linear_716_26561" x1="16.3204" y1="27.736" x2="28.7549" y2="13.0303" gradientUnits="userSpaceOnUse">
<stop stop-color="#339CFE"/>
<stop offset="1" stop-color="#62CBFF"/>
</linearGradient>
</defs>
</svg>
