<svg width="389" height="436" viewBox="0 0 389 436" fill="none" xmlns="http://www.w3.org/2000/svg">
<path d="M363.509 134.122C392.276 149.388 389.462 159.874 369.009 180.122C375.545 188.947 368.359 195.161 344.009 207.622C293.131 233.807 268.903 279.165 260.009 338.122C262.008 356.137 272.042 356.99 286.009 346.122C301.984 331.008 326.938 331.707 332.009 335.122C337.08 338.537 316.544 346.408 318.509 357.122C317.861 364.97 294.026 373.622 294.509 378.122C294.993 382.623 306.261 385.069 306.509 397.622V430.622C303.912 433.835 282.825 428.122 272.009 403.622C267.715 382.252 263.209 373.197 247.509 368.622C178.359 352.682 149.524 330.524 124.509 255.122C128.058 250.792 152.509 247.122 149.509 248.122C146.509 249.122 109.696 253.624 91.5094 267.622C59.5647 227.894 110.025 195.122 155.009 186.622C199.993 178.122 124.509 190.622 124.509 190.622C131.507 160.904 144.228 136.877 160.292 118.122M363.509 134.122C360.916 88.9907 318.416 64.1501 269.526 65.4922M363.509 134.122C354.57 132.364 350.867 133.189 346.051 136.622M189.526 91.8303C214.493 74.6857 242.953 66.2217 269.526 65.4922M189.526 91.8303C192.306 57.3778 230.449 32.2595 269.526 65.4922M189.526 91.8303C179.031 99.0371 169.153 107.778 160.292 118.122M322.026 73.1223L350.526 50.1223C356.72 44.1184 357.799 40.9543 350.526 36.1223L226.026 4.62228C218.021 3.37721 214.004 3.81862 208.026 7.62228L106.526 91.8303C102.072 99.3073 104.207 101.675 111.026 104.622L128.526 109.418M160.292 118.122L128.526 109.418M128.526 109.418C116.615 115.551 119.526 125.122 98.0257 125.122M98.0257 125.122C82.0364 115.657 73.169 115.58 57.5257 125.122C41.1029 127.86 27.0257 127.122 22.5257 121.122C18.0257 115.122 5.02568 151.622 4.02568 157.122C3.02568 162.622 36.6751 171.302 62.0257 162.622C82.2588 154.223 89.8273 145.533 98.0257 125.122Z" stroke="#56B2FF" stroke-width="8" stroke-linecap="round"/>
</svg>
