<svg width="18" height="18" viewBox="0 0 18 18" fill="none" xmlns="http://www.w3.org/2000/svg">
<path d="M17.3327 8.99984H15.266C14.9018 8.99906 14.5474 9.11759 14.2569 9.33731C13.9665 9.55703 13.756 9.86584 13.6577 10.2165L11.6993 17.1832C11.6867 17.2264 11.6604 17.2645 11.6243 17.2915C11.5883 17.3186 11.5444 17.3332 11.4993 17.3332C11.4543 17.3332 11.4104 17.3186 11.3743 17.2915C11.3383 17.2645 11.312 17.2264 11.2993 17.1832L6.69935 0.816504C6.68673 0.77323 6.66041 0.735217 6.62435 0.708171C6.58829 0.681124 6.54443 0.666504 6.49935 0.666504C6.45427 0.666504 6.41041 0.681124 6.37435 0.708171C6.33829 0.735217 6.31197 0.77323 6.29935 0.816504L4.34102 7.78317C4.24307 8.13247 4.03383 8.44027 3.74507 8.65985C3.4563 8.87943 3.10378 8.9988 2.74102 8.99984H0.666016" stroke="#6F7982" stroke-width="1.33333" stroke-linecap="round" stroke-linejoin="round"/>
</svg>
