<svg width="18" height="18" viewBox="0 0 18 18" fill="none" xmlns="http://www.w3.org/2000/svg">
<path d="M15.1875 5.20312H9.14062L7.15289 3.7125C6.9825 3.58471 6.77526 3.51562 6.56227 3.51562H2.8125C2.55143 3.51562 2.30105 3.61934 2.11644 3.80394C1.93184 3.98855 1.82813 4.23893 1.82812 4.5V14.0625C1.82812 14.3236 1.93184 14.574 2.11644 14.7586C2.30105 14.9432 2.55143 15.0469 2.8125 15.0469H15.1875C15.4486 15.0469 15.699 14.9432 15.8836 14.7586C16.0682 14.574 16.1719 14.3236 16.1719 14.0625V6.1875C16.1719 5.92643 16.0682 5.67605 15.8836 5.49144C15.699 5.30684 15.4486 5.20312 15.1875 5.20312ZM2.67188 4.5C2.67188 4.4627 2.68669 4.42694 2.71306 4.40056C2.73944 4.37419 2.7752 4.35938 2.8125 4.35938H6.56227C6.59269 4.35938 6.6223 4.36924 6.64664 4.3875L8.29688 5.625L6.64664 6.8625C6.6223 6.88076 6.59269 6.89062 6.56227 6.89062H2.67188V4.5ZM15.3281 14.0625C15.3281 14.0998 15.3133 14.1356 15.2869 14.1619C15.2606 14.1883 15.2248 14.2031 15.1875 14.2031H2.8125C2.7752 14.2031 2.73944 14.1883 2.71306 14.1619C2.68669 14.1356 2.67188 14.0998 2.67188 14.0625V7.73438H6.56227C6.77526 7.73438 6.9825 7.66529 7.15289 7.5375L9.14062 6.04688H15.1875C15.2248 6.04688 15.2606 6.06169 15.2869 6.08806C15.3133 6.11444 15.3281 6.1502 15.3281 6.1875V14.0625Z" fill="#4C4C66"/>
</svg>
