<svg width="16" height="16" viewBox="0 0 16 16" fill="none" xmlns="http://www.w3.org/2000/svg">
<path d="M15.6755 5.6695L8.17555 1.6695C8.12139 1.64029 8.06083 1.625 7.9993 1.625C7.93777 1.625 7.8772 1.64029 7.82305 1.6695L0.323048 5.6695C0.263206 5.70153 0.213178 5.7492 0.1783 5.80743C0.143421 5.86565 0.125 5.93226 0.125 6.00013C0.125 6.068 0.143421 6.1346 0.1783 6.19283C0.213178 6.25106 0.263206 6.29873 0.323048 6.33075L2.1243 7.292V10.3933C2.12424 10.6081 2.20322 10.8154 2.34617 10.9758C3.15055 11.8714 4.95492 13.3751 7.9993 13.3751C9.07131 13.3852 10.1343 13.1783 11.1243 12.767V15.0001C11.1243 15.0996 11.1638 15.195 11.2341 15.2653C11.3045 15.3356 11.3998 15.3751 11.4993 15.3751C11.5988 15.3751 11.6941 15.3356 11.7645 15.2653C11.8348 15.195 11.8743 15.0996 11.8743 15.0001V12.397C12.5399 12.0222 13.1404 11.542 13.6524 10.9751C13.7957 10.8152 13.8747 10.608 13.8743 10.3933V7.292L15.6755 6.33075C15.7354 6.29873 15.7854 6.25106 15.8203 6.19283C15.8552 6.1346 15.8736 6.068 15.8736 6.00013C15.8736 5.93226 15.8552 5.86565 15.8203 5.80743C15.7854 5.7492 15.7354 5.70153 15.6755 5.6695ZM7.9993 12.6251C5.2493 12.6251 3.6243 11.2776 2.9043 10.4745C2.88493 10.4519 2.8743 10.423 2.8743 10.3933V7.692L7.82305 10.3308C7.8773 10.3596 7.93783 10.3748 7.9993 10.3748C8.06077 10.3748 8.12129 10.3596 8.17555 10.3308L11.1243 8.75826V11.9458C10.3118 12.3345 9.27742 12.6251 7.9993 12.6251ZM13.1243 10.3933C13.1243 10.423 13.1137 10.4519 13.0943 10.4745C12.7341 10.8735 12.3241 11.2245 11.8743 11.5189V8.35825L13.1243 7.692V10.3933ZM11.7399 7.58075C11.7206 7.56396 11.6997 7.54909 11.6774 7.53638L8.17742 5.67013C8.09023 5.62825 7.99022 5.62169 7.8983 5.65181C7.80638 5.68193 7.72966 5.7464 7.68415 5.83176C7.63865 5.91712 7.62789 6.01676 7.65412 6.10986C7.68036 6.20296 7.74155 6.28233 7.82492 6.33138L10.9524 8.00013L7.9993 9.57513L1.29617 6.00013L7.9993 2.42513L14.7024 6.00013L11.7399 7.58075Z" fill="#4C4C66"/>
</svg>
