<svg width="24" height="24" viewBox="0 0 24 24" fill="none" xmlns="http://www.w3.org/2000/svg">
<path d="M12 0.25C18.4893 0.25 23.75 5.51065 23.75 12C23.75 18.4893 18.4893 23.75 12 23.75C5.51065 23.75 0.25 18.4893 0.25 12C0.25 5.51065 5.51065 0.25 12 0.25Z" stroke="url(#paint0_linear_458_174082)" stroke-width="0.5"/>
<path d="M11.2555 18.5851C11.2555 18.6951 11.2118 18.8007 11.1339 18.8785C11.0561 18.9563 10.9506 19 10.8406 19H6.41491C6.30487 19 6.19933 18.9563 6.12152 18.8785C6.04371 18.8007 6 18.6951 6 18.5851V6.41489C6 6.30486 6.04371 6.19933 6.12152 6.12152C6.19933 6.04371 6.30487 6 6.41491 6H10.8406C10.9506 6 11.0561 6.04371 11.1339 6.12152C11.2118 6.19933 11.2555 6.30486 11.2555 6.41489C11.2555 6.52493 11.2118 6.63046 11.1339 6.70827C11.0561 6.78608 10.9506 6.82979 10.8406 6.82979H6.82981V18.1702H10.8406C10.9506 18.1702 11.0561 18.2139 11.1339 18.2917C11.2118 18.3695 11.2555 18.4751 11.2555 18.5851ZM18.8787 12.2068L16.1126 9.44085C16.034 9.36756 15.9299 9.32767 15.8225 9.32956C15.715 9.33146 15.6124 9.375 15.5364 9.45102C15.4604 9.52703 15.4168 9.62959 15.4149 9.73707C15.413 9.84456 15.4529 9.94858 15.5262 10.0272L17.5835 12.0851H10.8406C10.7305 12.0851 10.625 12.1288 10.5472 12.2066C10.4694 12.2844 10.4257 12.39 10.4257 12.5C10.4257 12.61 10.4694 12.7156 10.5472 12.7934C10.625 12.8712 10.7305 12.9149 10.8406 12.9149H17.5835L15.5262 14.9728C15.4855 15.0107 15.4528 15.0566 15.4301 15.1074C15.4074 15.1583 15.3952 15.2133 15.3942 15.269C15.3933 15.3247 15.4035 15.38 15.4244 15.4317C15.4452 15.4834 15.4763 15.5303 15.5157 15.5697C15.5551 15.6091 15.602 15.6401 15.6537 15.661C15.7053 15.6819 15.7607 15.6921 15.8164 15.6911C15.8721 15.6902 15.927 15.678 15.9779 15.6553C16.0288 15.6326 16.0746 15.5999 16.1126 15.5591L18.8787 12.7932C18.9564 12.7154 19 12.6099 19 12.5C19 12.3901 18.9564 12.2846 18.8787 12.2068Z" fill="#C2C9D0"/>
<defs>
<linearGradient id="paint0_linear_458_174082" x1="0" y1="0" x2="23.7685" y2="0" gradientUnits="userSpaceOnUse">
<stop stop-color="#E0E1E2" stop-opacity="0"/>
<stop offset="0.5" stop-color="#E0E1E2"/>
<stop offset="1" stop-color="#E0E1E2" stop-opacity="0.15625"/>
</linearGradient>
</defs>
</svg>
