<svg width="16" height="16" viewBox="0 0 16 16" fill="none" xmlns="http://www.w3.org/2000/svg">
<path d="M2.75 12V11.999M2.75 12L2.57324 12.1768M2.75 12H2.74902M2.75 12L2.57324 12.1768M2.75 12L2.74902 11.999M2.75 12H2.74902M2.75 11.999L2.99512 11.9512M2.75 11.999L2.92676 11.8232M2.75 11.999H2.74902M2.75 11.999L2.99512 11.9512M2.75 11.999L2.92676 11.8232M2.99512 11.9512C3.00475 11.9996 3.00032 12.0501 2.98145 12.0957C2.96252 12.1414 2.92979 12.1805 2.88867 12.208C2.84761 12.2354 2.79936 12.25 2.75 12.25C2.6837 12.25 2.62013 12.2236 2.57324 12.1768M2.99512 11.9512C2.99028 11.9269 2.98226 11.9034 2.9707 11.8818L2.92676 11.8232M2.57324 12.1768C2.52636 12.1299 2.5 12.0663 2.5 12C2.5 11.9506 2.51462 11.9024 2.54199 11.8613L2.5918 11.8066C2.61063 11.7912 2.63157 11.778 2.6543 11.7686C2.68473 11.756 2.71737 11.752 2.75 11.752L2.79883 11.7549L2.86816 11.7793C2.88967 11.7908 2.90932 11.8058 2.92676 11.8232M2.74902 11.999V12M2.74902 11.999V12M2.75 8V7.99902M2.75 8L2.57324 8.17676M2.75 8H2.74902M2.75 8L2.57324 8.17676M2.75 8L2.74902 7.99902M2.75 8H2.74902M2.75 7.99902L2.99512 7.95117M2.75 7.99902L2.92676 7.82324M2.75 7.99902H2.74902M2.75 7.99902L2.99512 7.95117M2.75 7.99902L2.92676 7.82324M2.99512 7.95117C3.00475 7.99962 3.00032 8.05006 2.98145 8.0957C2.96252 8.14138 2.92978 8.18054 2.88867 8.20801C2.8476 8.23539 2.79936 8.25 2.75 8.25C2.6837 8.25 2.62013 8.22364 2.57324 8.17676M2.99512 7.95117C2.99028 7.92689 2.98226 7.90343 2.9707 7.88184L2.92676 7.82324M2.57324 8.17676C2.52636 8.12987 2.5 8.0663 2.5 8C2.5 7.95064 2.51462 7.90239 2.54199 7.86133L2.5918 7.80664C2.61063 7.79123 2.63157 7.77797 2.6543 7.76855C2.68473 7.75597 2.71738 7.75195 2.75 7.75195L2.79883 7.75488L2.86816 7.7793C2.88967 7.79081 2.90932 7.8058 2.92676 7.82324M2.74902 7.99902V8M2.74902 7.99902V8M2.75 4V3.99902M2.75 4L2.57324 4.17676M2.75 4H2.74902M2.75 4L2.57324 4.17676M2.75 4L2.74902 3.99902M2.75 4H2.74902M2.75 3.99902L2.99512 3.95117M2.75 3.99902L2.92676 3.82324M2.75 3.99902H2.74902M2.75 3.99902L2.99512 3.95117M2.75 3.99902L2.92676 3.82324M2.99512 3.95117C3.00475 3.99962 3.00032 4.05006 2.98145 4.0957C2.96252 4.14138 2.92978 4.18054 2.88867 4.20801C2.84761 4.23538 2.79936 4.25 2.75 4.25C2.6837 4.25 2.62013 4.22364 2.57324 4.17676M2.99512 3.95117C2.99028 3.92689 2.98226 3.90343 2.9707 3.88184L2.92676 3.82324M2.57324 4.17676C2.52636 4.12987 2.5 4.0663 2.5 4C2.5 3.95064 2.51462 3.90239 2.54199 3.86133L2.5918 3.80664C2.61063 3.79123 2.63157 3.77797 2.6543 3.76855C2.68473 3.75597 2.71738 3.75195 2.75 3.75195L2.79883 3.75488L2.86816 3.7793C2.88967 3.79081 2.90932 3.8058 2.92676 3.82324M2.74902 3.99902V4M2.74902 3.99902V4" stroke="#6F6C99" stroke-width="2"/>
</svg>
