<svg width="17" height="17" viewBox="0 0 17 17" fill="none" xmlns="http://www.w3.org/2000/svg">
<path d="M8.19287 0.0961914C12.6644 0.0961914 16.2896 3.72131 16.2896 8.19287C16.2896 12.6644 12.6644 16.2896 8.19287 16.2896C3.72131 16.2896 0.0961914 12.6644 0.0961914 8.19287C0.0961914 3.72131 3.72131 0.0961914 8.19287 0.0961914Z" fill="url(#paint0_linear_981_17782)"/>
<path d="M8.19287 0.0961914C12.6644 0.0961914 16.2896 3.72131 16.2896 8.19287C16.2896 12.6644 12.6644 16.2896 8.19287 16.2896C3.72131 16.2896 0.0961914 12.6644 0.0961914 8.19287C0.0961914 3.72131 3.72131 0.0961914 8.19287 0.0961914Z" stroke="#E6F2FF" stroke-width="0.192966"/>
<path d="M12.6143 5.89096C13.3024 6.07045 13.3378 6.60011 12.7677 7.15771C12.9498 7.40072 12.7495 7.57186 12.0708 7.91502C10.6525 8.63608 9.97709 9.88517 9.72917 11.5088C9.78489 12.0049 10.0646 12.0283 10.4539 11.7291C10.8993 11.3128 11.5949 11.3321 11.7362 11.4261C11.8776 11.5202 11.3051 11.7369 11.3599 12.032C11.3418 12.2481 10.6774 12.4863 10.6909 12.6103C10.7044 12.7342 11.0185 12.8016 11.0254 13.1473V14.056C10.953 14.1445 10.3652 13.9872 10.0637 13.3125C9.94398 12.724 9.81836 12.4747 9.38072 12.3487C7.45309 11.9097 6.64928 11.2995 5.95198 9.22308C6.05091 9.10383 6.73251 9.00278 6.64888 9.03032C6.56525 9.05785 5.53903 9.18183 5.03207 9.56731C4.14158 8.47328 5.54823 7.57079 6.8022 7.33671C8.05617 7.10264 5.95198 7.44687 5.95198 7.44687C6.14703 6.62848 6.50166 5.96681 6.94947 5.45034M12.6143 5.89096C12.542 4.64811 11.3573 3.96405 9.99445 4.001M12.6143 5.89096C12.3651 5.84252 12.2411 5.87749 12.1277 5.9598M7.76437 4.72631C8.46035 4.25418 9.25371 4.02109 9.99445 4.001M7.76437 4.72631C7.84188 3.77755 8.90514 3.08584 9.99445 4.001M7.76437 4.72631C7.47182 4.92477 7.19647 5.16547 6.94947 5.45034M11.4579 4.21112L12.2524 3.57774C12.4251 3.41241 12.4552 3.32527 12.2524 3.19221L8.78184 2.32475C8.55872 2.29047 8.44671 2.30262 8.28008 2.40737L5.45067 4.72631C5.32652 4.93221 5.38603 4.9974 5.57611 5.07858L6.06394 5.21063M6.94947 5.45034L6.06394 5.21063M6.06394 5.21063C5.73191 5.37953 5.81305 5.64311 5.21372 5.64311M5.21372 5.64311C4.768 5.38246 4.50412 5.38032 4.06805 5.64311C3.75057 5.781 3.23453 5.69819 3.10909 5.53296C2.98364 5.36773 2.62126 6.37288 2.59338 6.52434C2.5655 6.6758 3.50352 6.91481 4.21019 6.6758C4.7742 6.4445 4.98518 6.2052 5.21372 5.64311Z" stroke="#F5FAFF" stroke-width="0.260973" stroke-linecap="round"/>
<defs>
<linearGradient id="paint0_linear_981_17782" x1="9.0446" y1="20.8336" x2="18.3261" y2="12.8336" gradientUnits="userSpaceOnUse">
<stop stop-color="#339CFE"/>
<stop offset="1" stop-color="#62CBFF"/>
</linearGradient>
</defs>
</svg>
