<svg width="16" height="16" viewBox="0 0 16 16" fill="none" xmlns="http://www.w3.org/2000/svg">
<path d="M8.4375 3.59375V7.21016L11.5094 5.67422C11.6206 5.61869 11.7494 5.60964 11.8674 5.64905C11.9853 5.68846 12.0828 5.77311 12.1383 5.88438C12.1938 5.99565 12.2029 6.12441 12.1635 6.24236C12.124 6.3603 12.0394 6.45776 11.9281 6.51329L8.17813 8.38828C8.10665 8.42397 8.02724 8.44079 7.94743 8.43716C7.86763 8.43353 7.79007 8.40956 7.72214 8.36752C7.6542 8.32549 7.59813 8.2668 7.55925 8.197C7.52037 8.12721 7.49998 8.04864 7.5 7.96875V3.59375C7.5 3.46943 7.54939 3.35021 7.6373 3.2623C7.72521 3.17439 7.84443 3.125 7.96875 3.125C8.09307 3.125 8.2123 3.17439 8.30021 3.2623C8.38812 3.35021 8.4375 3.46943 8.4375 3.59375ZM7.96875 15C6.5781 15 5.21868 14.5876 4.0624 13.815C2.90612 13.0424 2.0049 11.9443 1.47273 10.6595C0.940547 9.3747 0.801305 7.96095 1.07261 6.59702C1.34391 5.2331 2.01357 3.98025 2.99691 2.99691C3.98025 2.01357 5.2331 1.34391 6.59702 1.07261C7.96095 0.801305 9.3747 0.940547 10.6595 1.47273C11.9443 2.0049 13.0424 2.90612 13.815 4.0624C14.5876 5.21868 15 6.5781 15 7.96875C15 8.09307 15.0494 8.2123 15.1373 8.30021C15.2252 8.38812 15.3444 8.4375 15.4688 8.4375C15.5931 8.4375 15.7123 8.38812 15.8002 8.30021C15.8881 8.2123 15.9375 8.09307 15.9375 7.96875C15.9375 6.39268 15.4701 4.85201 14.5945 3.54155C13.7189 2.2311 12.4744 1.20972 11.0183 0.606588C9.56216 0.0034526 7.95991 -0.154355 6.41413 0.153121C4.86834 0.460597 3.44845 1.21955 2.334 2.334C1.21955 3.44845 0.460597 4.86834 0.153121 6.41413C-0.154355 7.95991 0.0034526 9.56216 0.606588 11.0183C1.20972 12.4744 2.2311 13.7189 3.54155 14.5945C4.85201 15.4701 6.39268 15.9375 7.96875 15.9375C8.09307 15.9375 8.2123 15.8881 8.30021 15.8002C8.38812 15.7123 8.4375 15.5931 8.4375 15.4688C8.4375 15.3444 8.38812 15.2252 8.30021 15.1373C8.2123 15.0494 8.09307 15 7.96875 15ZM15.9219 15.3484C15.9538 15.4686 15.9367 15.5965 15.8742 15.7041C15.8118 15.8116 15.7092 15.89 15.5891 15.9219C15.4689 15.9538 15.341 15.9367 15.2334 15.8742C15.1259 15.8118 15.0475 15.7092 15.0156 15.5891C14.7766 14.6875 13.9352 14.0625 12.9688 14.0625C12.0023 14.0625 11.1609 14.6875 10.9219 15.5891C10.8953 15.689 10.8365 15.7773 10.7546 15.8403C10.6726 15.9034 10.5721 15.9375 10.4688 15.9375C10.4282 15.9373 10.3877 15.9321 10.3484 15.9219C10.2889 15.9061 10.2331 15.8787 10.1842 15.8414C10.1352 15.804 10.0942 15.7574 10.0632 15.7041C10.0323 15.6509 10.0122 15.592 10.0041 15.531C9.99589 15.47 9.99982 15.4079 10.0156 15.3484C10.1208 14.9612 10.3031 14.5992 10.5518 14.2842C10.8004 13.9692 11.1102 13.7078 11.4625 13.5156C11.094 13.2065 10.8295 12.7915 10.7049 12.3268C10.5804 11.8622 10.6018 11.3706 10.7663 10.9185C10.9308 10.4665 11.2303 10.0761 11.6244 9.80014C12.0184 9.52423 12.4877 9.37622 12.9688 9.37622C13.4498 9.37622 13.9191 9.52423 14.3131 9.80014C14.7072 10.0761 15.0067 10.4665 15.1712 10.9185C15.3357 11.3706 15.3571 11.8622 15.2326 12.3268C15.108 12.7915 14.8435 13.2065 14.475 13.5156C14.8273 13.7078 15.1371 13.9692 15.3857 14.2842C15.6344 14.5992 15.8167 14.9612 15.9219 15.3484ZM11.5625 11.7188C11.5625 11.9969 11.645 12.2688 11.7995 12.5C11.954 12.7313 12.1736 12.9115 12.4306 13.018C12.6876 13.1244 12.9703 13.1522 13.2431 13.098C13.5159 13.0437 13.7665 12.9098 13.9631 12.7131C14.1598 12.5165 14.2937 12.2659 14.348 11.9931C14.4022 11.7203 14.3744 11.4376 14.268 11.1806C14.1615 10.9236 13.9813 10.704 13.75 10.5495C13.5188 10.395 13.2469 10.3125 12.9688 10.3125C12.5958 10.3125 12.2381 10.4607 11.9744 10.7244C11.7107 10.9881 11.5625 11.3458 11.5625 11.7188Z" fill="#E1E6EB"/>
</svg>
