<svg width="15" height="18" viewBox="0 0 15 18" fill="none" xmlns="http://www.w3.org/2000/svg">
<path d="M7.34375 2.5C5.8913 2.5 4.47146 2.9307 3.26378 3.73765C2.05611 4.54459 1.11484 5.69152 0.559013 7.03342C0.00318192 8.37531 -0.142249 9.8519 0.141111 11.2764C0.424472 12.701 1.1239 14.0095 2.15094 15.0366C3.17798 16.0636 4.48651 16.763 5.91106 17.0464C7.33561 17.3298 8.81219 17.1843 10.1541 16.6285C11.496 16.0727 12.6429 15.1314 13.4499 13.9237C14.2568 12.716 14.6875 11.2962 14.6875 9.84375C14.6852 7.89676 13.9108 6.03017 12.5341 4.65345C11.1573 3.27672 9.29074 2.50227 7.34375 2.5ZM7.34375 16.25C6.07672 16.25 4.83813 15.8743 3.78463 15.1704C2.73113 14.4664 1.91002 13.4659 1.42515 12.2953C0.940276 11.1247 0.813411 9.83664 1.0606 8.59395C1.30778 7.35126 1.91792 6.20978 2.81385 5.31385C3.70978 4.41792 4.85127 3.80778 6.09396 3.56059C7.33665 3.31341 8.62473 3.44027 9.79532 3.92515C10.9659 4.41002 11.9664 5.23113 12.6704 6.28463C13.3743 7.33813 13.75 8.57671 13.75 9.84375C13.7479 11.5422 13.0723 13.1704 11.8714 14.3714C10.6704 15.5723 9.04216 16.2479 7.34375 16.25ZM10.8 6.3875C10.8878 6.47539 10.9371 6.59453 10.9371 6.71875C10.9371 6.84297 10.8878 6.96211 10.8 7.05L7.675 10.175C7.63209 10.2211 7.58034 10.258 7.52284 10.2836C7.46534 10.3092 7.40327 10.323 7.34033 10.3241C7.27739 10.3252 7.21487 10.3137 7.15651 10.2901C7.09814 10.2665 7.04512 10.2314 7.0006 10.1869C6.95609 10.1424 6.921 10.0894 6.89743 10.031C6.87385 9.97263 6.86227 9.91011 6.86338 9.84717C6.86449 9.78423 6.87827 9.72216 6.90389 9.66466C6.92951 9.60716 6.96645 9.55541 7.0125 9.5125L10.1375 6.3875C10.2254 6.29972 10.3445 6.25041 10.4688 6.25041C10.593 6.25041 10.7121 6.29972 10.8 6.3875ZM5 0.46875C5 0.34443 5.04939 0.225201 5.1373 0.137294C5.22521 0.049386 5.34443 0 5.46875 0H9.21875C9.34307 0 9.4623 0.049386 9.55021 0.137294C9.63812 0.225201 9.6875 0.34443 9.6875 0.46875C9.6875 0.59307 9.63812 0.712299 9.55021 0.800206C9.4623 0.888114 9.34307 0.9375 9.21875 0.9375H5.46875C5.34443 0.9375 5.22521 0.888114 5.1373 0.800206C5.04939 0.712299 5 0.59307 5 0.46875Z" fill="#E1E6EB"/>
</svg>
